<svg xmlns="http://www.w3.org/2000/svg" xmlns:xlink="http://www.w3.org/1999/xlink" viewBox="-1141 45 221.641 215.641"><defs><style>.a{fill:#a3bb28;}.b{fill:#a2ba28;}.b,.d{fill-rule:evenodd;}.c{fill:#404040;}.d{fill:#fff;}.e{filter:url(#a);}</style><filter id="a" x="-1141" y="189" width="221.641" height="71.641" filterUnits="userSpaceOnUse"><feOffset dy="3" input="SourceAlpha"/><feGaussianBlur stdDeviation="3" result="b"/><feFlood flood-opacity="0.161"/><feComposite operator="in" in2="b"/><feComposite in="SourceGraphic"/></filter></defs><g transform="translate(-2005 45)"><g class="e" transform="matrix(1, 0, 0, 1, 2005, -45)"><rect class="a" width="203.641" height="53.641" rx="26.82" transform="translate(-1132 195)"/></g><rect class="a" width="203.641" height="203.641" rx="30" transform="translate(873)"/><g transform="translate(900.769 75.208)"><path class="b" d="M126.332-193.256a10.682,10.682,0,0,1,10.677,10.677v48.492a10.682,10.682,0,0,1-10.677,10.677H77.84a10.682,10.682,0,0,1-10.677-10.677v-48.492A10.682,10.682,0,0,1,77.84-193.256Zm-23.711,30.729h-.777c-.024,0-15.357,2.542-15.281,20.217-.047,10.385,8.59,5.916,8.59,5.916a23.138,23.138,0,0,1,6.693-1.354l.776-.081a23.576,23.576,0,0,1,6.693,1.326s8.64,4.569,8.59-5.814C117.978-159.994,102.645-162.523,102.621-162.527Zm21.456-7.463c-3.264-1.045-7.129,1.922-8.631,6.625s-.074,9.361,3.189,10.4,7.13-1.924,8.633-6.626S127.341-168.949,124.077-169.99ZM88.8-163.413c-1.621-4.8-5.579-7.9-8.84-6.915S75.376-164.655,77-159.853s5.579,7.9,8.839,6.912S90.426-158.614,88.8-163.413Zm8.9-.245c3.252-.988,4.583-5.68,2.97-10.481s-5.557-7.894-8.812-6.9-4.582,5.678-2.971,10.48S94.45-162.671,97.706-163.659Zm4.952-10.754c1.493-4.668,5.483-7.564,8.913-6.471s5,5.77,3.508,10.44-5.481,7.568-8.911,6.471S101.168-169.74,102.658-174.412Z" transform="translate(-29.053 193.256)"/><path class="c" d="M6.95-53.87v8.077c0,1.6-.779,2.358-2.173,2.358a1.988,1.988,0,0,1-2.111-2.194c-.062-.656-.636-.841-1.333-.841C.431-46.47,0-46.2,0-45.178c0,2.542,2.05,4.08,4.9,4.08,2.583,0,4.715-1.271,4.715-4.695v-9.574c0-.553-.574-.84-1.169-.84H4.859c-.595,0-.841.594-.841,1.148,0,.636.307,1.189.841,1.189Z" transform="translate(0 133.972)"/><path class="c" d="M22.662-50.52a4.328,4.328,0,0,0-4.49,4.1v1.743c0,2.522,2.05,4.2,4.961,4.2,2.194,0,3.608-1,3.608-1.7,0-.41-.39-1.169-1-1.169s-1.168.779-2.522.779c-1.435,0-2.4-.779-2.4-1.968v-.307h4.162c.923,0,1.907-.082,1.907-1.825A4,4,0,0,0,22.662-50.52ZM20.817-46.4v-.574a1.671,1.671,0,0,1,1.784-1.6,1.683,1.683,0,0,1,1.8,1.62c0,.451-.164.554-.595.554ZM19.71-54.025a.8.8,0,0,0,.82.861h4.2a.849.849,0,0,0,.841-.861.881.881,0,0,0-.841-.882h-4.2A.825.825,0,0,0,19.71-54.025Z" transform="translate(-7.861 133.409)"/><path class="c" d="M42.637-49.627a.689.689,0,0,0,.225-.492,1.479,1.479,0,0,0-1.292-1.271.82.82,0,0,0-.533.205l-3.854,3.629v-8.59c0-.492-.615-.82-1.353-.82-.759,0-1.292.328-1.292.82V-42.39c0,.41.533.841,1.292.841.738,0,1.353-.431,1.353-.841v-2.255l1.271-1.168,2.768,4.08a.79.79,0,0,0,.656.348,1.662,1.662,0,0,0,1.5-1.312.722.722,0,0,0-.144-.431l-3.014-4.305Z" transform="translate(-14.941 134.3)"/><path class="c" d="M53.315-47.175c-1.456,0-3.28.636-3.28,1.476,0,.594.308,1.312.9,1.312.492,0,.759-.636,2.337-.636a1.721,1.721,0,0,1,1.8,1.886v.267h-.84c-2.829,0-4.777.656-4.777,3.014a2.5,2.5,0,0,0,2.665,2.727,4.077,4.077,0,0,0,3.116-1.62v.594c0,.472.512.841,1.189.841.738,0,1.292-.369,1.292-.841v-5.023C57.722-45.248,56.513-47.175,53.315-47.175Zm1.763,6.109A2.144,2.144,0,0,1,53.192-39.1,1.007,1.007,0,0,1,52.105-40.2c0-1.148,1.292-1.292,2.665-1.292h.307Z" transform="translate(-21.395 130.065)"/><path class="c" d="M67.01-56.966c-.759,0-1.292.328-1.292.82V-42.39c0,.41.533.841,1.292.841.656,0,1.189-.431,1.189-.841v-.594a3.272,3.272,0,0,0,2.85,1.62c1.907,0,3.588-2.009,3.588-4.2v-1.681a3.949,3.949,0,0,0-3.649-4.162,2.975,2.975,0,0,0-2.624,1.558v-6.294C68.363-56.638,67.748-56.966,67.01-56.966Zm4.982,11.4a1.9,1.9,0,0,1-1.784,1.886A2.051,2.051,0,0,1,68.363-45.2v-2.05a1.83,1.83,0,0,1,1.825-1.845,1.884,1.884,0,0,1,1.8,1.845Z" transform="translate(-28.428 134.3)"/><path class="c" d="M83.914-47.052c-.7,0-1.251.328-1.251.82v12.608c0,.431.533.841,1.292.841.738,0,1.353-.41,1.353-.841v-5.125a3.046,3.046,0,0,0,2.686,1.62c1.907,0,3.588-2.009,3.588-4.2v-1.681a3.938,3.938,0,0,0-3.67-4.162,3.223,3.223,0,0,0-2.768,1.558v-.615C85.144-46.724,84.631-47.052,83.914-47.052Zm5.023,5.72a1.955,1.955,0,0,1-1.825,1.886,1.994,1.994,0,0,1-1.8-1.517v-2.05a1.794,1.794,0,0,1,1.763-1.845,1.924,1.924,0,0,1,1.866,1.845Z" transform="translate(-35.758 130.065)"/><path class="c" d="M100.774-50.584c-.759,0-1.312.328-1.312.82v8.077c0,.41.554.841,1.312.841.738,0,1.332-.431,1.332-.841v-8.077C102.107-50.256,101.512-50.584,100.774-50.584Zm0-4.756a1.381,1.381,0,0,0-1.456,1.292,1.4,1.4,0,0,0,1.456,1.292,1.389,1.389,0,0,0,1.435-1.292A1.375,1.375,0,0,0,100.774-55.34Z" transform="translate(-42.963 133.597)"/><path class="c" d="M107.676-56.966c-.779,0-1.312.328-1.312.82V-42.39c0,.41.533.841,1.312.841.717,0,1.332-.431,1.332-.841V-56.146C109.008-56.638,108.393-56.966,107.676-56.966Z" transform="translate(-46.011 134.3)"/><path class="c" d="M115.829-39.139c-1.722,0-2.173-.923-2.767-.923-.512,0-.882.738-.882,1.169,0,.9,1.62,1.763,3.711,1.763,2.419,0,3.772-1.169,3.772-2.993,0-3.649-4.92-2.624-4.92-4.121,0-.41.41-.923,1.436-.923,1.127,0,1.763.595,2.255.595.615,0,.964-.9.964-1.271,0-.759-1.6-1.333-3.26-1.333-2.747,0-3.67,1.6-3.67,3.055,0,3.424,4.859,2.3,4.859,4.1C117.326-39.61,117.039-39.139,115.829-39.139Z" transform="translate(-48.526 130.065)"/><path class="c" d="M133.256-56.207c-.7,0-1.169.389-1.169.82v13.346c0,.431.472.82,1.169.82h3.629c2.706,0,4.817-1.271,4.817-4.695v-5.6c0-3.424-2.111-4.695-4.817-4.695Zm3.629,2.337c1.353,0,2.152.758,2.152,2.358v5.6c0,1.6-.8,2.358-2.152,2.358h-2.132V-53.87Z" transform="translate(-57.138 133.972)"/><path class="c" d="M153.189-39.373l4.059-5.576a1.851,1.851,0,0,0,.41-1.107.828.828,0,0,0-.861-.9H150.77c-.472,0-.779.492-.779,1.066,0,.615.348,1.086.779,1.086h3.546l-4.038,5.576a1.741,1.741,0,0,0-.451,1.066.867.867,0,0,0,.9.943h6.478c.472,0,.779-.492.779-1.066,0-.615-.348-1.087-.779-1.087Z" transform="translate(-64.812 129.971)"/><path class="c" d="M164.949-50.4c-.759,0-1.312.328-1.312.82V-41.5c0,.41.554.841,1.312.841.738,0,1.332-.431,1.332-.841v-8.077C166.282-50.069,165.687-50.4,164.949-50.4Zm-2.911-3.629a.8.8,0,0,0,.82.861h4.2a.848.848,0,0,0,.84-.861.881.881,0,0,0-.84-.882h-4.2A.825.825,0,0,0,162.038-54.025Z" transform="translate(-70.094 133.409)"/><path class="c" d="M173.363-37.56c.143.328.656.471,1.189.471.512,0,1.066-.164,1.21-.471l3.506-8.118a.726.726,0,0,0,.082-.349c0-.636-1.209-1.148-1.763-1.148a.743.743,0,0,0-.759.492l-2.275,5.9-2.275-5.945a.783.783,0,0,0-.779-.451c-.676,0-1.763.512-1.763,1.128a.77.77,0,0,0,.1.369Z" transform="translate(-73.423 130.065)"/><path class="c" d="M189.54-43.013a1.743,1.743,0,0,1,1.681-1.845A1.88,1.88,0,0,1,193-43.013v4.859c0,.554.7.841,1.312.841.656,0,1.332-.287,1.332-.841v-4.859c0-2.276-1.64-4.162-3.526-4.162a3.007,3.007,0,0,0-2.747,1.558v-.615c0-.492-.533-.82-1.169-.82-.779,0-1.312.328-1.312.82v8.077c0,.41.533.841,1.312.841.718,0,1.333-.431,1.333-.841Z" transform="translate(-80.846 130.065)"/><path class="c" d="M205.186-50.584c-.759,0-1.312.328-1.312.82v8.077c0,.41.553.841,1.312.841.738,0,1.333-.431,1.333-.841v-8.077C206.519-50.256,205.925-50.584,205.186-50.584Zm0-4.756a1.381,1.381,0,0,0-1.455,1.292,1.4,1.4,0,0,0,1.455,1.292,1.389,1.389,0,0,0,1.435-1.292A1.375,1.375,0,0,0,205.186-55.34Z" transform="translate(-88.129 133.597)"/><path class="c" d="M214.29-47.175a4.327,4.327,0,0,0-4.489,4.1v1.743c0,2.522,2.05,4.2,4.961,4.2,2.194,0,3.608-1,3.608-1.7,0-.41-.39-1.169-1-1.169s-1.168.779-2.522.779c-1.435,0-2.4-.779-2.4-1.968V-41.5h4.162c.922,0,1.907-.082,1.907-1.825A4,4,0,0,0,214.29-47.175Zm-1.845,4.121v-.574a1.671,1.671,0,0,1,1.784-1.6,1.682,1.682,0,0,1,1.8,1.62c0,.451-.164.554-.595.554Z" transform="translate(-90.755 130.065)"/><path class="c" d="M234.265-49.627a.689.689,0,0,0,.226-.492A1.48,1.48,0,0,0,233.2-51.39a.819.819,0,0,0-.533.205l-3.854,3.629v-8.59c0-.492-.615-.82-1.353-.82-.758,0-1.291.328-1.291.82V-42.39c0,.41.533.841,1.291.841.738,0,1.353-.431,1.353-.841v-2.255l1.271-1.168,2.767,4.08a.79.79,0,0,0,.656.348A1.663,1.663,0,0,0,235-42.7a.725.725,0,0,0-.144-.431l-3.014-4.305Z" transform="translate(-97.834 134.3)"/><path class="c" d="M246.224-37.036a4.375,4.375,0,0,0,4.428-4.162v-4.941c0-.431-.533-.82-1.312-.82-.717,0-1.332.389-1.332.82V-41.2a1.852,1.852,0,0,1-1.783,1.845,1.884,1.884,0,0,1-1.8-1.845v-4.92c0-.41-.615-.841-1.312-.841-.738,0-1.332.431-1.332.841v4.92A4.394,4.394,0,0,0,246.224-37.036Z" transform="translate(-104.586 129.971)"/><path class="c" d="M60.811-12.458c0,.545.645.827,1.311.827.645,0,1.311-.282,1.311-.827v-4.679h2.259c2.662,0,4.74-1.271,4.74-4.578v-.121c0-3.308-2.017-4.538-4.578-4.538H61.8a.889.889,0,0,0-.988.807Zm4.881-11.617c1.311,0,2.118.746,2.118,2.319v.242c0,1.573-.807,2.319-2.118,2.319H63.433v-4.881Z" transform="translate(-26.305 121.067)"/><path class="c" d="M80.847-17.488c-1.432,0-3.227.625-3.227,1.452,0,.585.3,1.291.887,1.291.484,0,.746-.625,2.3-.625a1.694,1.694,0,0,1,1.775,1.856v.262h-.827c-2.783,0-4.7.645-4.7,2.965a2.46,2.46,0,0,0,2.622,2.682A4.011,4.011,0,0,0,82.742-9.2v.585c0,.464.5.827,1.17.827.726,0,1.271-.363,1.271-.827v-4.941C85.183-15.592,83.993-17.488,80.847-17.488Zm1.734,6.01a2.11,2.11,0,0,1-1.856,1.936.991.991,0,0,1-1.069-1.089c0-1.129,1.271-1.271,2.622-1.271h.3Z" transform="translate(-33.332 117.223)"/><path class="c" d="M95.581-18.638h2.38c.424,0,.666-.464.666-.948,0-.464-.242-.948-.666-.948h-2.38V-24c0-.484-.645-.807-1.311-.807-.605,0-1.291.323-1.291.807v9.782c0,2.279,1.311,3.267,3.731,3.267H97.5a1.057,1.057,0,0,0,1.109-1.109A1.052,1.052,0,0,0,97.5-13.152H96.71c-.847,0-1.129-.282-1.129-1.069Z" transform="translate(-40.22 120.39)"/><path class="c" d="M105.577-8.029c.141.323.646.464,1.17.464.5,0,1.049-.161,1.19-.464l3.449-7.987a.71.71,0,0,0,.081-.343c0-.625-1.19-1.129-1.734-1.129a.731.731,0,0,0-.747.484L106.747-11.2l-2.238-5.849a.771.771,0,0,0-.767-.444c-.666,0-1.735.5-1.735,1.109a.753.753,0,0,0,.1.363Z" transform="translate(-44.126 117.223)"/><path class="c" d="M122.526-17.488a4.258,4.258,0,0,0-4.417,4.034v1.714c0,2.481,2.017,4.135,4.881,4.135,2.158,0,3.549-.988,3.549-1.674,0-.4-.383-1.15-.988-1.15s-1.15.766-2.481.766c-1.412,0-2.36-.766-2.36-1.936v-.3h4.095c.907,0,1.875-.081,1.875-1.795A3.939,3.939,0,0,0,122.526-17.488Zm-1.815,4.054V-14a1.644,1.644,0,0,1,1.754-1.573,1.655,1.655,0,0,1,1.775,1.593c0,.444-.161.545-.585.545Z" transform="translate(-51.091 117.223)"/><path class="c" d="M139.722-15.209a1.1,1.1,0,0,0,.948-1.15,1.092,1.092,0,0,0-.948-1.129H139.1a2.967,2.967,0,0,0-2.481,1.755v-.827c0-.484-.524-.807-1.17-.807-.746,0-1.27.323-1.27.807v7.946c0,.4.524.827,1.27.827.726,0,1.331-.424,1.331-.827v-3.61c0-1.835,1.15-2.985,2.32-2.985Z" transform="translate(-58.041 117.223)"/><path class="c" d="M148.428-9.582c-1.694,0-2.138-.908-2.723-.908-.5,0-.868.726-.868,1.15,0,.887,1.593,1.734,3.651,1.734,2.38,0,3.711-1.15,3.711-2.945,0-3.59-4.841-2.582-4.841-4.054,0-.4.4-.908,1.412-.908,1.109,0,1.735.585,2.219.585.605,0,.948-.887.948-1.25,0-.746-1.573-1.311-3.207-1.311-2.7,0-3.61,1.573-3.61,3.005,0,3.368,4.78,2.259,4.78,4.034C149.9-10.046,149.618-9.582,148.428-9.582Z" transform="translate(-62.654 117.223)"/><path class="c" d="M164.565-8.593c0,.565.686.807,1.291.807.646,0,1.311-.242,1.311-.807v-4.82a1.658,1.658,0,0,1,1.593-1.815,1.682,1.682,0,0,1,1.634,1.835v4.78c0,.4.6.827,1.291.827.706,0,1.311-.424,1.311-.827v-4.78c0-2.622-1.754-4.094-3.59-4.094a3.424,3.424,0,0,0-3.045,2.017,2.769,2.769,0,0,0-2.521-2.017,2.988,2.988,0,0,0-2.662,1.533v-.605c0-.484-.524-.807-1.15-.807-.767,0-1.291.323-1.291.807v7.946c0,.4.524.827,1.291.827.706,0,1.311-.424,1.311-.827v-4.78a1.644,1.644,0,0,1,1.573-1.815,1.7,1.7,0,0,1,1.653,1.815Z" transform="translate(-68.665 117.223)"/><path class="c" d="M189.278-17.488a4.258,4.258,0,0,0-4.417,4.034v1.714c0,2.481,2.017,4.135,4.881,4.135,2.158,0,3.55-.988,3.55-1.674,0-.4-.384-1.15-.988-1.15s-1.15.766-2.481.766c-1.412,0-2.36-.766-2.36-1.936v-.3h4.095c.907,0,1.876-.081,1.876-1.795A3.939,3.939,0,0,0,189.278-17.488Zm-1.815,4.054V-14a1.644,1.644,0,0,1,1.755-1.573,1.655,1.655,0,0,1,1.775,1.593c0,.444-.162.545-.585.545Z" transform="translate(-79.966 117.223)"/></g><g transform="translate(905.397 17.356)"><path class="d" d="M60.622-47.741H58.564C58.5-47.73,17.875-41,18.076,5.825,17.952,33.341,40.835,21.5,40.835,21.5s9.671-3.588,17.733-3.588l2.055-.215c8.056,0,17.733,3.513,17.733,3.513S101.247,33.317,101.114,5.8C101.311-41.028,60.687-47.73,60.622-47.741Z" transform="translate(9.099 97.29)"/><path class="d" d="M92.377-60.707c-8.65-2.769-18.889,5.094-22.867,17.552s-.2,24.8,8.451,27.564,18.891-5.1,22.873-17.556S101.024-57.948,92.377-60.707Z" transform="translate(34.194 90.484)"/><path class="d" d="M33.113-43.007C28.819-55.733,18.329-63.934,9.692-61.327S-2.463-46.3,1.83-33.572,16.612-12.649,25.25-15.259,37.411-30.29,33.113-43.007Z" transform="translate(0 90.208)"/><path class="d" d="M46.14-34.147c8.616-2.616,12.141-15.05,7.869-27.769S39.284-82.831,30.66-80.211,18.521-65.167,22.789-52.444,37.512-31.529,46.14-34.147Z" transform="translate(10.56 80.699)"/><path class="d" d="M46.941-62.74C50.9-75.11,61.467-82.783,70.554-79.885S83.8-64.6,79.85-52.225,65.328-32.174,56.24-35.08,42.992-50.363,46.941-62.74Z" transform="translate(22.88 80.801)"/></g></g></svg>